<svg id="Layer_1" data-name="Layer 1" xmlns="http://www.w3.org/2000/svg" width="256" height="256" viewBox="0 0 2000 2000"><defs><style>.cls-1{fill:#00ffc3;}.cls-2{fill:#1e2d40;}</style></defs><rect class="cls-1" x="211.16" y="211.16" width="1577.68" height="1577.68" rx="382.47"/><path class="cls-2" d="M747.24,1398.74H681.15V1148.07h0L533.09,1000,681.15,851.94V601.26H830.31l193.83-193.84H487.32V771.65L259,1000,396,1137.06h0l91.29,91.29v364.21H747.24l196.07-193.84H747.24Z"/><path class="cls-2" d="M1604,862.94h0l-91.29-91.29V407.43H1252.76L1056.69,601.26h262.16V851.93h0L1466.91,1000l-148.06,148.06v250.68H1169.69L975.86,1592.58h536.82V1228.35L1741,1000Z"/><path class="cls-2" d="M760.77,1159.5V1319h478.49V681H760.77v398.72h319v79.77Zm159.5-239.27V840.5h159.5v79.73Z"/></svg>
