<?xml version="1.0" encoding="UTF-8" standalone="no"?>
<!-- Uploaded to: SVG Repo, www.svgrepo.com, Generator: SVG Repo Mixer Tools -->

<svg
   version="1.1"
   id="Layer_1"
   width="800px"
   height="800px"
   viewBox="0 0 128 128"
   enable-background="new 0 0 128 128"
   xml:space="preserve"
   sodipodi:docname="info-svgrepo-com.svg"
   inkscape:version="1.2.2 (b0a8486541, 2022-12-01)"
   xmlns:inkscape="http://www.inkscape.org/namespaces/inkscape"
   xmlns:sodipodi="http://sodipodi.sourceforge.net/DTD/sodipodi-0.dtd"
   xmlns="http://www.w3.org/2000/svg"
   xmlns:svg="http://www.w3.org/2000/svg"><defs
   id="defs17" /><sodipodi:namedview
   id="namedview15"
   pagecolor="#ffffff"
   bordercolor="#000000"
   borderopacity="0.25"
   inkscape:showpageshadow="2"
   inkscape:pageopacity="0.0"
   inkscape:pagecheckerboard="0"
   inkscape:deskcolor="#d1d1d1"
   showgrid="false"
   inkscape:zoom="1.28375"
   inkscape:cx="399.61052"
   inkscape:cy="399.61052"
   inkscape:window-width="3366"
   inkscape:window-height="1376"
   inkscape:window-x="0"
   inkscape:window-y="27"
   inkscape:window-maximized="1"
   inkscape:current-layer="Layer_1" />
<g
   id="g6">
	<g
   id="g4">
		<path
   fill="#B0BEC5"
   d="M64,0C28.656,0,0,28.656,0,64s28.656,64,64,64s64-28.656,64-64S99.344,0,64,0z M64,120    C33.125,120,8,94.875,8,64S33.125,8,64,8s56,25.125,56,56S94.875,120,64,120z"
   id="path2" />
	</g>
</g>
<g
   id="g12">
	<g
   id="g10">
		<path
   fill="#03A9F4"
   d="M64,48c-4.414,0-8,3.586-8,8v40c0,4.414,3.586,8,8,8s8-3.586,8-8V56C72,51.586,68.414,48,64,48z M64,40    c4.414,0,8-3.586,8-8s-3.586-8-8-8s-8,3.586-8,8S59.586,40,64,40z"
   id="path8" />
	</g>
</g>
<path
   style="fill:#e6e6e6;stroke-width:1.03836"
   d="M 371.56767,748.49676 C 233.04447,737.42828 112.54642,642.74671 68.257444,510.17016 56.261012,474.25951 50.648985,439.14697 50.648985,400 c 0,-19.44517 0.709565,-30.31501 3.142209,-48.13556 C 69.432169,237.28516 142.57196,136.70123 247.3223,85.714986 287.76523,66.029767 328.57055,54.977508 374.18617,51.353475 c 24.02178,-1.908463 59.78653,-0.20852 84.60759,4.021505 126.5714,21.570401 232.11875,112.23242 272.9488,234.45486 8.73711,26.15404 14.40489,54.08422 16.82391,82.90628 1.01319,12.07189 1.02082,40.97284 0.0142,53.83041 -8.88893,113.53921 -71.5585,214.52732 -169.78592,273.59948 -45.81893,27.55464 -98.07862,44.17532 -152.22823,48.41466 -11.66306,0.9131 -43.1219,0.8651 -54.99885,-0.0839 z M 414.80039,648.0993 c 15.22936,-4.69532 28.03862,-17.27131 33.3215,-32.71468 l 1.73205,-5.0633 0.2174,-132.81402 c 0.19573,-119.57685 0.0927,-133.37975 -1.03323,-138.49026 -4.05103,-18.3864 -19.13185,-33.72463 -37.35359,-37.99115 -8.03376,-1.88105 -20.74783,-1.24473 -28.28182,1.41547 -11.91706,4.20784 -22.50405,13.54509 -28.15151,24.82838 -5.92241,11.8326 -5.56557,1.76003 -5.32253,150.23756 l 0.2174,132.81402 2.08701,5.71342 c 6.53131,17.88006 20.14813,29.65565 38.86231,33.60742 5.43847,1.14841 17.528,0.36156 23.70501,-1.54286 z M 412.074,248.83586 c 17.99277,-4.22806 32.90558,-19.60436 37.04098,-38.19222 1.68521,-7.57472 1.20885,-18.80147 -1.10441,-26.02826 -4.77949,-14.93145 -17.30606,-27.49873 -32.37013,-32.47531 -5.41064,-1.78747 -7.60326,-2.07891 -15.64044,-2.07891 -8.07306,0 -10.22011,0.28803 -15.74645,2.11239 -29.38344,9.70011 -42.82967,42.69572 -28.86627,70.83473 6.07526,12.24282 18.9944,22.60065 32.15875,25.78305 6.20561,1.50016 18.24042,1.52201 24.52797,0.0446 z"
   id="path384"
   transform="scale(0.16)" /></svg>
