<?xml version="1.0" encoding="iso-8859-1"?>
<!-- Uploaded to: SVG Repo, www.svgrepo.com, Generator: SVG Repo Mixer Tools -->
<svg version="1.1" id="Layer_1" xmlns="http://www.w3.org/2000/svg" xmlns:xlink="http://www.w3.org/1999/xlink" 
	 viewBox="0 0 508 508" xml:space="preserve">
<circle style="fill:#54C0EB;" cx="254" cy="254" r="254"/>
<path style="fill:#84DBFF;" d="M36.8,386C81.6,459.2,162,508,254,508s172.4-48.8,217.2-122H36.8z"/>
<g>
	<path style="fill:#FFD05B;" d="M366.4,235.2l2.8,10.4c4.8,5.2,13.2,3.2,14.8,2.8c1.6-1.6-0.4-2.4-0.4-2.4c-6.8,0.4-7.2-4.8-7.2-4.8
		c4-2.4,8.4,1.6,10.4,4c0.8,0.8,2,0.8,2.8,0s0.8-2,0.4-2.8C382.8,231.2,366.4,235.2,366.4,235.2z"/>
	<path style="fill:#FFD05B;" d="M128,310.8l10.8,1.2c5.6,3.6,5.6,12.4,5.2,14.4c-1.6,2-2.4,0-2.4,0c-0.8-6.8-6-6.4-6-6.4
		c-1.6,4.4,2.8,8,5.6,9.6c1.2,0.4,1.2,2,0.8,2.8s-1.6,1.2-2.4,0.8C126.8,327.6,128,310.8,128,310.8z"/>
</g>
<rect x="175.6" y="137.6" style="fill:#E6E9EE;" width="58.4" height="77.6"/>
<polygon style="fill:#F1543F;" points="213.6,140.4 196,140.4 199.6,148 210,148 "/>
<polygon style="fill:#FF7058;" points="216.4,196.4 204.8,215.2 193.2,196.4 199.6,148 210,148 "/>
<path style="fill:#2B3B4E;" d="M204.8,318.4L204.8,318.4C202.4,334.8,194,340,194,340c-27.2,6.8-43.2-15.6-43.2-15.6
	c17.6-45.6,2-113.6,2-113.6c-7.6,18-10,102.8-10,102.8h-17.2c-12-62.8-4.8-114,2.4-142.8c3.2-14,14-25.2,27.6-29.2
	c20.4-6,29.2-17.6,29.2-17.6c-2.8,36,15.6,76.8,15.6,76.8c2,3.6,3.2,8.4,4.4,14.4C204.8,214.8,192.8,277.2,204.8,318.4z"/>
<g>
	<path style="fill:#324A5E;" d="M161.6,160l13.6-10.8l-14.8-3.2c14-4.8,24.4-21.6,24.4-21.6c-2.8,36,15.6,76.8,15.6,76.8
		c1.6,3.6,3.2,8,4.4,13.6C177.2,200.4,161.6,160,161.6,160z"/>
	<path style="fill:#324A5E;" d="M215.2,339.2c0,0-8.4-5.2-10.8-21.6l0,0c-2,16.4-10.4,21.6-10.4,21.6c-15.2,3.6-26.8-1.6-34.4-6.8
		l8,131.2h23.6L202,340.8c0-1.6,1.2-2.4,2.8-2.4l0,0c1.6,0,2.8,1.2,2.8,2.4L218.4,464H242l8-131.2C242,338,230.4,343.2,215.2,339.2z
		"/>
</g>
<path style="fill:#2B3B4E;" d="M215.2,339.2c0,0-8.4-5.2-10.8-21.6l0,0l0,0V338l0,0c1.6,0,2.8,1.2,2.8,2.4L218,463.6h23.6l8-131.2
	C242,338,230.4,343.2,215.2,339.2z"/>
<path style="fill:#324A5E;" d="M243.2,468.8c0.8-1.6,1.2-3.6,1.2-5.2c0-8-6.4-14.4-14.4-14.4s-14.4,6.4-14.4,14.4
	c0,2,0.4,3.6,1.2,5.2H243.2z"/>
<path style="fill:#F9B54C;" d="M204.8,140.4L204.8,140.4C204.4,140.4,204.4,140.4,204.8,140.4c-19.2-9.2-17.2-21.2-17.2-21.2
	c0-0.4,0-0.4,0-0.4c4.8,5.6,10.4,9.6,16.8,9.6c6.4,0,12-3.6,16.8-9.6v0.4c0,0,0,0,0,0.4C222,121.2,222,132,204.8,140.4z"/>
<path style="fill:#F1543F;" d="M204.8,140.4L204.8,140.4C204.4,140.4,204.4,140.4,204.8,140.4L204.8,140.4z"/>
<g>
	<path style="fill:#FFFFFF;" d="M221.6,118.8c0,0,2,12-16.8,21.2c0,0,14,1.2,18.4,14.4C223.2,155.2,230.8,126,221.6,118.8z"/>
	<path style="fill:#FFFFFF;" d="M187.6,118.8c0,0-2,12,16.8,21.2c0,0-14,1.2-18.4,14.4C186,155.2,178.4,126,187.6,118.8z"/>
</g>
<path style="fill:#FFD05B;" d="M233.2,94L233.2,94c0.8-4,1.2-8,1.2-12c0-22-13.2-30.4-30-30.4c-16.4,0-30,8.8-30,30.4
	c0,4,0.4,8,1.2,12l0,0c-2.4,1.2-3.2,5.2-1.6,8.8c1.2,2.8,3.6,4.4,5.6,4.4c5.2,12.8,14.4,23.2,24.8,23.2c10.4,0,19.2-10.4,24.8-23.2
	c2,0,4.4-2,5.6-4.4C236.4,99.2,236,95.2,233.2,94z"/>
<path style="fill:#324A5E;" d="M204.4,39.2c0,0,13.2,0.4,24.8,11.2c25.2,24-1.2,59.2-1.2,59.2s3.6-8.4,2.4-17.6
	c-0.4-3.2-0.8-6.8-0.4-10c0.4-6-1.2-15.6-15.6-13.2c0,0-8.4,6-28.4,1.2c0,0-12.8,19.6-5.6,36.8c0,0-21.2-32.4,1.2-52.8l-7.6,1.6
	c0,0,8.4-15.6,25.2-10c0,0-1.6-2.8-6.8-4c0,0,7.6-3.2,12,2C204.4,43.2,207.2,41.2,204.4,39.2z"/>
<path style="fill:#2B3B4E;" d="M191.2,468.8c0.8-1.6,1.2-3.6,1.2-5.2c0-8-6.4-14.4-14.4-14.4s-14.4,6.4-14.4,14.4
	c0,2,0.4,3.6,1.2,5.2H191.2z"/>
<path style="fill:#324A5E;" d="M258.8,215.2c50,48,114,34.8,114,34.8c0-13.6-4.8-16.4-4.8-16.4c-24,4.4-45.6-11.6-58.4-24.8
	c-7.2-7.2-12.4-16-16-25.6c-6-16.4-15.6-27.2-24.8-33.6c-4.4-3.6-9.2-6.4-14.8-8c-0.4,0-0.8-0.4-1.6-0.4c-1.2-0.4-2.4-0.8-3.2-1.2
	c-16.8-6-24.4-16-24.4-16c2.8,36-15.6,76.8-15.6,76.8c-2,3.6-3.2,8.4-4.4,14.4c0,0-12,62,0,103.6l0,0c2,13.2,7.6,19.2,10,21.2
	c0.4,0.4,0.8,0.8,0.8,0.8c27.2,6.8,43.2-15.6,43.2-15.6c-12.4-32.4-8-76.4-4.4-98.8L258.8,215.2z"/>
<path style="fill:#2B3B4E;" d="M248,160l-13.6-10.8l14.8-3.2c-14-4.8-24.4-21.6-24.4-21.6c2.8,36-15.6,76.8-15.6,76.8
	c-1.6,3.6-3.2,8-4.4,13.6C232.4,200.4,248,160,248,160z"/>
<path style="fill:#FFFFFF;" d="M421.6,358.8c0-21.6-17.6-38.8-38.8-38.8c-8.4,0-15.2-6.8-15.2-15.2s6.8-15.2,15.2-15.2
	c4.4,0,8.4,1.6,11.2,4.8c4.4,4.8,12,4.8,16.8,0.4s4.8-12,0.4-16.8s-10.4-8.4-16.4-10.4v-6.8c0-6.4-5.2-11.6-11.6-11.6
	s-11.6,5.2-11.6,11.6v6.8c-15.6,5.2-27.2,19.6-27.2,37.2c0,21.6,17.6,38.8,38.8,38.8c8.4,0,15.2,6.8,15.2,15.2s-7.2,15.2-15.6,15.2
	c-4.4,0-8.4-1.6-11.2-4.8c-4.4-4.8-12-4.8-16.8-0.4s-4.8,12-0.4,16.8s10.4,8.4,16.4,10.4v6.8c0,6.4,5.2,11.6,11.6,11.6
	s11.6-5.2,11.6-11.6V396C410.4,390.8,421.6,376,421.6,358.8z"/>
</svg>