<?xml version="1.0" encoding="iso-8859-1"?>
<!-- Uploaded to: SVG Repo, www.svgrepo.com, Generator: SVG Repo Mixer Tools -->
<svg version="1.1" id="Layer_1" xmlns="http://www.w3.org/2000/svg" xmlns:xlink="http://www.w3.org/1999/xlink" 
	 viewBox="0 0 508 508" xml:space="preserve">
<circle style="fill:#324A5E;" cx="254" cy="254" r="254"/>
<path style="fill:#E6E9EE;" d="M334,455.6L80.8,384.4c-5.2-1.6-8-6.8-6.8-12l88-313.6c1.6-5.2,6.8-8,12-6.8l252.8,71.2
	c5.2,1.6,8,6.8,6.8,12l-88,313.6C344.4,454,338.8,456.8,334,455.6z"/>
<path style="fill:#FFFFFF;" d="M385.2,426.4H122.8c-5.2,0-9.6-4.4-9.6-9.6V91.2c0-5.2,4.4-9.6,9.6-9.6h262.8c5.2,0,9.6,4.4,9.6,9.6
	v325.6C394.8,422,390.8,426.4,385.2,426.4z"/>
<g>
	<path style="fill:#84DBFF;" d="M132.4,134c0-1.6,1.2-3.2,3.2-3.2c4,0,4.4-4,4.4-4.4v-22.8c0-1.6,1.2-3.2,3.2-3.2
		c1.6,0,3.2,1.2,3.2,3.2v22.8c0,0.4,0,2.8-1.2,5.2c-1.6,3.6-5.2,5.6-9.2,5.6C133.6,137.2,132.4,135.6,132.4,134z"/>
	<path style="fill:#84DBFF;" d="M150.4,118.8c0-10,8-18.4,17.6-18.4s17.6,8,17.6,18.4c0,10-8,18.4-17.6,18.4
		C158,137.2,150.4,128.8,150.4,118.8z M156.4,118.8c0,6.8,5.2,12,11.2,12c6.4,0,11.6-5.6,11.6-12c0-6.8-5.2-12-11.6-12
		C161.6,106.8,156.4,112,156.4,118.8z"/>
	<path style="fill:#84DBFF;" d="M214,125.6c0,7.2-5.6,11.6-10.8,11.6h-10.8c-1.6,0-3.2-1.2-3.2-3.2v-30.4c0-1.6,1.2-3.2,3.2-3.2h8.4
		c0.4,0,2.4,0,4.8,1.2c3.2,1.6,5.2,4.8,5.2,8.8c0,2-0.4,4-1.6,5.6C212.4,118.4,214,121.6,214,125.6z M195.6,114.4h4.4
		c0.8,0,4.4,0,4.4-4c0-3.6-2.4-4-3.2-4c-0.4,0-0.4,0-0.4,0h-5.2V114.4z M208,125.6c0-2-1.2-5.2-4.8-5.2H196v10.8h7.2
		c0,0,1.6,0,2.8-0.8C207.6,129.2,208,127.2,208,125.6z"/>
</g>
<g>
	<rect x="127.6" y="158.8" style="fill:#E6E9EE;" width="116.8" height="8.8"/>
	<rect x="263.6" y="158.8" style="fill:#E6E9EE;" width="116.8" height="8.8"/>
	<rect x="127.6" y="184.8" style="fill:#E6E9EE;" width="116.8" height="8.8"/>
	<rect x="263.6" y="184.8" style="fill:#E6E9EE;" width="116.8" height="8.8"/>
	<rect x="127.6" y="211.2" style="fill:#E6E9EE;" width="116.8" height="8.8"/>
	<rect x="263.6" y="211.2" style="fill:#E6E9EE;" width="116.8" height="8.8"/>
	<rect x="127.6" y="237.6" style="fill:#E6E9EE;" width="116.8" height="8.8"/>
	<rect x="263.6" y="237.6" style="fill:#E6E9EE;" width="116.8" height="8.8"/>
	<rect x="127.6" y="264" style="fill:#E6E9EE;" width="116.8" height="8.8"/>
	<rect x="263.6" y="264" style="fill:#E6E9EE;" width="116.8" height="8.8"/>
	<rect x="127.6" y="290.4" style="fill:#E6E9EE;" width="116.8" height="8.8"/>
	<rect x="263.6" y="290.4" style="fill:#E6E9EE;" width="116.8" height="8.8"/>
	<rect x="127.6" y="316.8" style="fill:#E6E9EE;" width="116.8" height="8.8"/>
	<rect x="263.6" y="316.8" style="fill:#E6E9EE;" width="116.8" height="8.8"/>
	<rect x="127.6" y="343.2" style="fill:#E6E9EE;" width="116.8" height="8.8"/>
	<rect x="263.6" y="343.2" style="fill:#E6E9EE;" width="116.8" height="8.8"/>
	<rect x="127.6" y="369.6" style="fill:#E6E9EE;" width="116.8" height="8.8"/>
	<rect x="263.6" y="369.6" style="fill:#E6E9EE;" width="116.8" height="8.8"/>
	<rect x="127.6" y="396" style="fill:#E6E9EE;" width="116.8" height="8.8"/>
	<rect x="263.6" y="396" style="fill:#E6E9EE;" width="116.8" height="8.8"/>
</g>
</svg>